<svg xmlns="http://www.w3.org/2000/svg" width="8.65" height="16" viewBox="0 0 8.65 16">
  <path id="Path_5623" data-name="Path 5623" d="M30.4,0,28.327,0a3.644,3.644,0,0,0-3.837,3.938V5.753H22.4a.326.326,0,0,0-.326.326V8.71a.326.326,0,0,0,.326.326h2.086v6.637a.326.326,0,0,0,.326.326h2.722a.326.326,0,0,0,.326-.326V9.036H30.3a.326.326,0,0,0,.326-.326V6.08a.326.326,0,0,0-.326-.326h-2.44V4.214c0-.74.176-1.115,1.14-1.115h1.4a.326.326,0,0,0,.326-.326V.33A.326.326,0,0,0,30.4,0Z" transform="translate(-22.077)" fill="#1976d2"/>
</svg>
