<svg xmlns="http://www.w3.org/2000/svg" width="374" height="137.344" viewBox="0 0 374 137.344">
  <g id="Group_4165" data-name="Group 4165" transform="translate(-46.404 -273.774)">
    <path id="Path_4158" data-name="Path 4158" d="M228.483,376.659c.046-1.28-.445-1.574-1.655-1.606-4.019-.105-8.014.4-12.026.359a7.613,7.613,0,0,1-6.157-2.916A12.2,12.2,0,0,1,206,362.432c.423-2.444,2.713-4.828,4.933-5.119,3.685-.483,5.909,1.277,6.195,3.512.156,1.21.587,1.821,1.215,2.093a7.489,7.489,0,0,0,4.01.843h.009a10.34,10.34,0,0,0,2.159-.353c1.441-.252,2.573-.469,2.861-.845.222-.29.1-.976.1-.976h0a6.091,6.091,0,0,0-.432-1.726h0l-.034-.087-.086-.218-.744-1.9c-.02-.053-.038-.1-.06-.159-.011-.031-.026-.061-.038-.092l-.133-.341-.008.008c-2.377-5.767-7.82-10.193-14.564-9.863a15.137,15.137,0,0,0-13.082,8.048,19.717,19.717,0,0,0-.6,19.347c.383.79.026.6-.477.585-1.887-.06-3.78-.17-5.662-.079a5.335,5.335,0,0,1-5.336-5.4c.1-8.315.035-16.634.035-24.949v-1.784c.519,1.088.791,1.376,1.665,1a54.605,54.605,0,0,0,5.307-2.388c3.578-2.024,7.131-4.245,9.366-7.687,3.98-6.132,3.932-12.558.072-18.785a47.026,47.026,0,0,0-5.6-6.875h0l-7.278-8.844c-2.313-2.826-4.739-5.692-5.934-9.111-1.127-3.233-3.1-3.63-5.944-3.372-1.2.11-1.41.452-1.4,1.551.04,3.612.037,7.222.031,10.831h0v4.276c0,.212,0,.426,0,.639v7.707h0V314.6l0,.043,0,.05v3.087h0c0,.95,0,1.485,0,2.018v11.4h.009q.016,19.008.052,38.016c.006,2.612-.871,4.551-3.436,5.555-3.517,1.375-7.541-1.2-7.4-4.685.2-5.072.031-10.159.072-15.241.008-.921-.208-1.256-1.186-1.225-2.289.072-4.582.092-6.867,0-1.291-.054-1.745.275-1.719,1.662.089,4.8,0,9.6.05,14.4a5.028,5.028,0,0,1-2.788,4.776c-2.053,1.19-4.226.386-6.329.613-1.005.109-2.446.48-2.932-.014-.587-.6.38-1.791.614-2.741a4.213,4.213,0,0,0,.014-.668c.374-5.019-1.022-9.287-5.064-12.559a13.611,13.611,0,0,0-8.424-3.407c-6.642-.1-13.288-.029-19.934-.037-.423,0-.958.186-1.2-.319-.232-.477.3-.646.536-.909,4.108-4.663,8.227-9.314,12.384-14.014-2.252-2-4.426-3.882-6.546-5.827-.66-.6-.819-.209-1.236.272-3.621,4.184-7.316,8.3-10.92,12.5a34.056,34.056,0,0,0-4.252,5.573c-1.59,2.887-1.706,6.905.075,8.986a9.014,9.014,0,0,0,7.4,3.126c7.538,0,15.075-.015,22.613.008,3.12.009,5.09,2.292,5.248,5.5.108,2.224-2.516,4.618-5.165,4.6-13.9-.115-27.807-.05-41.71-.066a2.829,2.829,0,0,1-1.792-.2,10.184,10.184,0,0,0,.72-3.841q-.066-4.941,0-9.883a11.341,11.341,0,0,0-1.763-6.013c-3.187-5.3-7.765-8.129-14.159-7.894a15.427,15.427,0,0,0-12.935,9.1c-1.884,4.472-1.294,9.139-1.216,13.739.023,1.45-.515,1.645-1.508,2-5.083,1.842-8.546,5.289-9.243,10.732-.7,5.478.6,10.773,2.579,15.9a1.105,1.105,0,0,0,1.207.846q4.187-.032,8.375,0c.756.006,1.074-.2.671-.956a30.806,30.806,0,0,1-2.68-7.428,10.5,10.5,0,0,1,.2-6.4c.8-2.015,4.053-3.054,6.972-2.162,3.442,1.053,6.9,2.139,10.506,2.169,9.759.083,19.52.028,29.28.05h.194c.561,0,1.121,0,1.682,0,.031,0,.057,0,.086,0h6.375a2.532,2.532,0,0,0,.373,0h5.113l0-.009c10.893-.012,21.785.009,32.678-.023a14.461,14.461,0,0,0,9.693-3.376c.912-.787,1.386-.521,2.05.05a14.079,14.079,0,0,0,9.313,3.3,14.271,14.271,0,0,0,9.281-3.492c.626-.509,1.043-.643,1.688-.023a12.871,12.871,0,0,0,8.913,3.485c12.058.177,24.121.058,36.181.092,1.039,0,1.184-.423,1.164-1.3C228.434,381.238,228.4,378.946,228.483,376.659Zm-42.237-52.394q0-6.744.044-13.476a4.979,4.979,0,0,0-.044-.674v-2.774a3.435,3.435,0,0,0,0-.859v-2.143l1.021,1.1c.05.07.1.141.154.211a6.812,6.812,0,0,0,1,1.04l2.958,3.205c2.893,3.52,5.888,6.878,7.348,11.435,1.668,5.208-1.459,12.226-5.42,14.833a35.037,35.037,0,0,1-7.055,3.292q0-4.659-.006-9.292ZM77.666,372.014c-.263,1.781-2.738,3.083-4.854,2.724a26.649,26.649,0,0,1-3.15-.7,7.01,7.01,0,0,1-2.507-1.077c-.773-.649-.049-1.694-.151-2.573a30.1,30.1,0,0,1-.034-3.5c0-1.821-.05-3.642.012-5.462a5.388,5.388,0,0,1,4.693-4.759c3.566-.249,5.246.7,5.941,3.68A31.273,31.273,0,0,1,77.666,372.014Z" transform="translate(0 6.901)" fill="#010101"/>
    <path id="Path_4159" data-name="Path 4159" d="M299.711,349.279q-3.518.064-7.037,0c-1.1-.023-1.419.394-1.406,1.491.057,4.522.038,9.046,0,13.568a7.3,7.3,0,0,1-.344,3.427,5.849,5.849,0,0,1-6.089,2.958,5.5,5.5,0,0,1-4.33-5.436c0-4.8-.034-9.6.037-14.406.018-1.262-.374-1.661-1.619-1.612-2.175.089-4.359.09-6.533,0-1.057-.044-1.291.275-1.279,1.3.058,4.577.021,9.157.026,13.736a8.636,8.636,0,0,1-.608,3.376,5.6,5.6,0,0,1-6.354,3.06,5.41,5.41,0,0,1-4.091-5.225c-.017-4.97-.027-9.941.014-14.91.008-.978-.189-1.376-1.279-1.329a56.644,56.644,0,0,1-6.361-.015c-1.471-.1-1.792.328-1.812,1.789-.069,5.112.423,10.231-.255,15.338a4.889,4.889,0,0,1-3.825,4.224,5.32,5.32,0,0,1-5.555-1.569c-1.781-1.917-2.124-4.569-3.362-6.769-.29-.516.193-.889.5-1.294,1.645-2.162,3.589-4.232,4.055-6.994a63.113,63.113,0,0,0,1.074-9.99c.108-15.8.04-31.607.064-47.411,0-.944-.284-1.273-1.234-1.248-2.177.053-4.359.075-6.533-.006-1.239-.046-1.667.246-1.662,1.619.053,17.312.024,34.623.046,51.935a10.6,10.6,0,0,1-.788,3.795c-.374.99-.9,1.393-1.789.283a62.787,62.787,0,0,0-5.231-5.934c-2-1.928-3.925-3.934-6-5.775a56.648,56.648,0,0,1-5.908-6.849c-2.107-2.574-4.045-5.387-4.375-8.775-.672-6.921,1.853-12.68,6.982-17.329a49.774,49.774,0,0,1,8.563-6.322c1.042-.6.906-1.21.252-1.986-1.247-1.483-2.524-2.945-3.667-4.505-.4-.541-.5-.429-.979-.167a64.765,64.765,0,0,0-9.061,6.082c-8.7,6.948-11.878,16.018-10.546,26.924.765,6.256,3.766,11.314,8.039,15.7,2.249,2.308,4.863,4.238,7.18,6.494,2.273,2.217,4.89,4.093,6.69,6.769.467.7,1.158,1.447-.522,1.794a11.982,11.982,0,0,0-3.476,1.7,18.4,18.4,0,0,0-6.87,7.368c-2.263,4.267-1.439,8.787-1.651,13.424l.009,1.24a1.52,1.52,0,0,0,0,.362l0,.4c-.058.6.084,1.005.914.9l1.477,0,.217.046h6.467l-.043-.037c1.844.018,3.688.024,5.529-.028,4.727-.133,9.084-1.292,12.368-4.991a1.257,1.257,0,0,1,1.8-.293,11.838,11.838,0,0,0,5.335,1.244,14.768,14.768,0,0,0,9.241-3.214c.524-.4.943-1.108,1.789-.431,3.561,2.851,7.571,4.216,12.135,3.321,2.273-.446,4.586-1.022,6.293-2.729a1.8,1.8,0,0,1,2.777-.145,13.837,13.837,0,0,0,11.4,2.907,14.849,14.849,0,0,0,12.367-13.646c.364-5.28.058-10.605.084-15.91C300.968,349.652,300.671,349.261,299.711,349.279Zm-80.152,28.469a2.45,2.45,0,0,0-.368.1,2.45,2.45,0,0,1,.368-.1Zm.574-.361a.5.5,0,0,0,.04-.782A.5.5,0,0,1,220.133,377.388Zm8.03-2.6a23.157,23.157,0,0,1-4.3.3c-.28,0-.559,0-.837,0-3.141.021-3.123.031-1.836-2.8,1.54-3.392,4.566-4.643,7.854-5.541.321-.087.419.119.6.367a8.307,8.307,0,0,1,1.59,3.514C231.646,372.967,230.511,374.309,228.163,374.788Z" transform="translate(81.645 11.252)" fill="#010101"/>
    <path id="Path_4160" data-name="Path 4160" d="M297.3,320.078a155.756,155.756,0,0,1-15.746-19.9,12.057,12.057,0,0,1-1.991-4.608c-.139-.86-.391-.972-1.1-.962-2.065.026-4.139.118-6.195-.027-1.546-.108-1.879.4-1.876,1.9q.071,42.124.034,84.249c0,3.689,0,3.715,3.685,3.677,1.774-.018,4.093.749,5.177-.287,1.195-1.14.463-3.508.419-5.33-.351-14.953.125-29.908-.04-44.863-.089-8.04-.032-16.082.015-24.124,0-.684-.584-1.453.16-2.255a62,62,0,0,0,7.128,8.939,59.677,59.677,0,0,1,6.794,8.6,14,14,0,0,1-4.246,19.107c-2.441,1.618-5.268,2.45-7.979,3.469.568,1.143,1.286,2.214,1.746,3.324s.793.932,1.612.617a43.186,43.186,0,0,0,9.761-5.39,16.947,16.947,0,0,0,7.542-14.532A17.253,17.253,0,0,0,297.3,320.078Z" transform="translate(118.202 10.973)" fill="#010101"/>
    <path id="Path_4161" data-name="Path 4161" d="M213.159,338.755a15.212,15.212,0,0,0-15.363-12.4c-5.637.159-11.759,4.333-13.67,9.987a23.069,23.069,0,0,0-.9,10.466c.426,3.208-.817,4.363-3.567,5.507-4.38,1.826-6.8,5.494-7.24,10.265-.478,5.19.825,10.118,2.476,14.973.254.744.588,1.192,1.514,1.172,3.011-.061,6.024-.023,9.293-.023-.643-1.5-1.169-2.738-1.708-3.972a17.919,17.919,0,0,1-1.537-9.5,4.108,4.108,0,0,1,3.592-3.616,12.254,12.254,0,0,1,6.161.872c3.173,1.172,6.49,2.09,9.794,1.335,5.319-1.215,8.684-4.826,10.628-9.872.907-2.356.6-4.774.634-7.176C213.31,344.094,213.67,341.333,213.159,338.755Zm-9.253,6.8c-.2,1.488.057,3.24-.214,5.029-.4,2.632-3.329,3.639-5.4,3.265-.477-.087-.962-.193-1.438-.3-3.992-.915-4.059-1.008-4.062-5.135,0-2.508.035-5.015.055-7.524a5.594,5.594,0,0,1,4.362-5.066c3.088-.481,5.222.684,6.177,3.256a7.907,7.907,0,0,1,.527,3.028C203.882,343.161,203.905,344.222,203.905,345.55Z" transform="translate(66.45 27.744)" fill="#010101"/>
    <path id="Path_4162" data-name="Path 4162" d="M126.248,359.66c-.426.432-.736.768-1.323.144-1.685-1.8-3.425-3.541-5.225-5.39-2.015,2.032-3.772,3.987-5.729,5.717-1.32,1.166-.655,1.894.241,2.626a35.366,35.366,0,0,1,4.734,4.747c.581.692.9.251,1.286-.044,1.69-1.277,2.871-3.075,4.534-4.407.782-.626,1.066-.408,1.575.144,1.592,1.732,3.208,3.442,5.008,5.368,2.426-2.571,4.624-4.9,6.708-7.11l-6.881-6.745C129.627,356.264,127.927,357.952,126.248,359.66Z" transform="translate(35.264 42.555)" fill="#010101"/>
    <path id="Path_4163" data-name="Path 4163" d="M85.919,321.543a26.228,26.228,0,0,0,5.028-3.034c2.577-2.14,4.979-4.293,5.712-7.869.357-1.749-.548-4.452-1.74-5.271a4.1,4.1,0,0,0-4.84-.116,4.741,4.741,0,0,0-2.6,4.646,4.211,4.211,0,0,0,3.117,4.14c1.376.382.936.8.368,1.5a15.04,15.04,0,0,1-6.372,4.317c-1.476.591-3.123.773-4.667,1.911A6.508,6.508,0,0,0,85.919,321.543Zm3.9-12.472a2.042,2.042,0,0,1,2.166-2.084c1.268.07,1.887.927,1.844,2.855-.174.729-.07,2.047-1.392,2.261C91.2,312.305,89.794,310.513,89.824,309.071Z" transform="translate(17.691 16.225)" fill="#010101"/>
    <path id="Path_4164" data-name="Path 4164" d="M188.009,324.128c-2.522,1.161-4.542,3.4-7.582,3.5,2.463,1.033,4.716.391,6.888-.75a23.174,23.174,0,0,0,6.129-4.546c2.091-2.221,4.016-4.641,3.188-8.134-.538-2.269-2.212-3.906-4.218-3.807-2.256.113-4.689,2.327-4.846,4.414-.206,2.709.822,4.359,3.43,5.225.854.283,1.08.484.361,1.143C190.261,322.181,189.415,323.483,188.009,324.128Zm1.862-9.122a1.918,1.918,0,0,1,2.143-1.975c1.433-.023,1.926.613,1.914,2.683-.24.738.108,2.191-1.45,2.359C191.258,318.2,189.8,316.378,189.871,315.006Z" transform="translate(70.726 19.322)" fill="#010101"/>
    <path id="Path_4165" data-name="Path 4165" d="M247.076,314.992c-.564-.241-.655.208-.826.677a14.935,14.935,0,0,0-.238,8.126c.409,2.156,1.251,2.515,3.367,2.13,1.537-.28,1.92-1.572,2.693-2.406.83.391.771,1.764,1.966,1.655a4.665,4.665,0,0,0,4.044-3.6c.84-3.121-.137-6.042-.767-9.032a4.38,4.38,0,0,0-.885,4.227c.364,1.01.173,2.053.553,3.059.322.849.206,1.676-1.127,1.881-2.105.322-3-.264-3.143-2.492-.064-1-.021-2.007-.008-3.013a4.137,4.137,0,0,0-.749-2.6,4.632,4.632,0,0,0-.952,3.294c.07,1.224-.037,2.458.034,3.682.078,1.376-.793,1.613-1.849,1.755-1.132.153-2.088-.147-2.142-1.381a18.275,18.275,0,0,1,.131-4.983C247.27,315.584,247.53,315.184,247.076,314.992Z" transform="translate(105.101 20.456)" fill="#010101"/>
    <path id="Path_4166" data-name="Path 4166" d="M130.77,284.815a85.884,85.884,0,0,1,8.2-3.827c3.537-1.23,4.986-3.995,6.134-7.214-2.982,2.331-6.462,3.74-9.834,5.217-2.553,1.118-4.527,2.371-5.274,5.147-.086.316-.358.634-.089.9C130.226,285.348,130.5,284.943,130.77,284.815Z" transform="translate(44.005)" fill="#010101"/>
    <path id="Path_4167" data-name="Path 4167" d="M204.23,298.807c2.455-1.129,4.811-2.507,7.325-3.468,3.575-1.364,6.009-3.6,6.879-7.561a76.965,76.965,0,0,1-10.356,5.381,7.212,7.212,0,0,0-4.669,4.776c-.118.4-.582.787-.179,1.176C203.6,299.464,203.934,298.944,204.23,298.807Z" transform="translate(82.674 7.39)" fill="#010101"/>
    <path id="Path_4168" data-name="Path 4168" d="M154.687,323.62c3.845-1.856,7.785-3.552,11.475-5.682,1.8-1.04,2.136-3.41,2.913-5.323a75.248,75.248,0,0,1-10.207,5.309c-2.275,1-4.314,2.227-4.925,4.921-.072.313-.319.588-.087.9C154.179,324.182,154.447,323.736,154.687,323.62Z" transform="translate(56.653 20.497)" fill="#010101"/>
    <path id="Path_4169" data-name="Path 4169" d="M118.793,321.817c3.755-.419,5.034,2.1,5.784,5.2a15.82,15.82,0,0,0-1.9-7.13c-1.184-1.994-2.412-2.8-4.469-2.44-1.835.318-2.735,1.784-3.22,3.353a17.261,17.261,0,0,0-.571,7.61C114.927,324.318,116.421,322.083,118.793,321.817Z" transform="translate(35.794 23.006)" fill="#010101"/>
    <path id="Path_4170" data-name="Path 4170" d="M56.659,323.441c.53-.082.483-.516.486-.906q.557-.479,1.115-.956c1.855-1.592,3.922-1.544,5.947-.072,1.838,1.335,1.546,3.44,2.23,5.2a16.361,16.361,0,0,0-2.542-8.978,3.549,3.549,0,0,0-5.749-.55h0l-.009.014c-.092.1-.183.2-.27.315a.3.3,0,0,0,.038.057c-.2.335-.5.851-.779,1.418a5.06,5.06,0,0,0-.535,1.34l-.017.058-.017.064c-.107.371-.223.8-.362,1.328,0,0-.192,1.111.137,1.39A.44.44,0,0,0,56.659,323.441Z" transform="translate(5.137 22.262)" fill="#010101"/>
    <path id="Path_4171" data-name="Path 4171" d="M255.834,309.891l.031-.014c.017-.008.032-.018.05-.026l.116-.061a6.592,6.592,0,0,0,1.079-.674c.04-.031.076-.064.116-.095.122-.1.241-.2.353-.3.053-.052.108-.1.16-.157a8.1,8.1,0,0,0,2.094-3.89c.1-.341.141-.72.272-1.077-1.013.588-2.05,1.14-3.033,1.775-3.01,1.945-6.413,3.107-9.531,4.843-1.933,1.074-1.943,3.022-2.987,5.054,3.5-1.685,6.482-3.176,9.515-4.56C254.668,310.434,255.264,310.18,255.834,309.891Z" transform="translate(104.567 15.736)" fill="#010101"/>
    <path id="Path_4172" data-name="Path 4172" d="M283.3,290.35l.029-.014c.018-.008.032-.018.05-.026l.118-.061a6.575,6.575,0,0,0,1.077-.674c.04-.031.078-.064.116-.095.122-.1.241-.2.353-.3.055-.052.108-.1.16-.157a8.084,8.084,0,0,0,2.094-3.89c.1-.341.142-.72.273-1.077-1.013.588-2.05,1.14-3.034,1.775-3.01,1.945-6.413,3.107-9.531,4.843-1.931,1.074-1.943,3.022-2.987,5.054,3.5-1.685,6.484-3.176,9.516-4.56C282.13,290.893,282.728,290.639,283.3,290.35Z" transform="translate(119.059 5.424)" fill="#010101"/>
  </g>
</svg>
