<?xml version="1.0" standalone="no"?>
<!DOCTYPE svg PUBLIC "-//W3C//DTD SVG 20010904//EN"
 "http://www.w3.org/TR/2001/REC-SVG-20010904/DTD/svg10.dtd">
<svg version="1.0" xmlns="http://www.w3.org/2000/svg"
 width="160" height="30.05" viewBox="0 0 160 30.05"
 preserveAspectRatio="xMidYMid meet">

<g transform="translate(0.000000,113.000000) scale(0.100000,-0.100000)"
fill="#0D0D33" stroke="none">
<path id="logo-icon" fill="#5840FF" d="M280 1120 c-76 -13 -141 -49 -188 -102 l-24 -26 104 -78 c57 -42 149
-113 206 -157 l102 -80 -37 -46 c-45 -55 -52 -59 172 98 126 89 161 109 164
95 3 -17 -36 -427 -45 -472 -6 -32 -15 -28 -54 30 -52 76 -54 83 -25 145 14
31 25 58 25 62 0 3 -42 -38 -93 -92 -85 -90 -95 -97 -117 -89 -14 6 -119 53
-234 106 -115 53 -211 95 -214 92 -2 -3 10 -24 28 -48 44 -58 542 -558 555
-558 16 0 548 540 573 581 12 20 29 64 38 98 62 242 -164 485 -410 440 -62
-11 -133 -42 -176 -77 l-25 -20 -38 30 c-72 57 -191 86 -287 68z"/>
<path d="M2235 875 c-14 -13 -25 -33 -25 -44 0 -23 44 -61 72 -61 23 0 68 43
68 65 0 23 -45 65 -70 65 -11 0 -32 -11 -45 -25z"/>
<path d="M1470 880 c0 -5 8 -10 19 -10 10 0 30 -12 45 -26 l26 -27 0 -258 c0
-246 -1 -260 -20 -279 -11 -11 -31 -20 -45 -20 -14 0 -25 -4 -25 -10 0 -6 42
-10 105 -10 63 0 105 4 105 10 0 6 -11 10 -25 10 -14 0 -34 9 -45 20 -19 19
-20 33 -20 258 0 226 1 236 18 215 9 -12 107 -135 217 -272 l200 -250 5 300 5
301 24 19 c13 10 32 19 42 19 10 0 19 5 19 10 0 6 -42 10 -105 10 -63 0 -105
-4 -105 -10 0 -5 10 -10 23 -10 35 0 57 -21 67 -65 11 -48 13 -315 3 -315 -5
0 -78 90 -163 200 l-155 199 -107 1 c-66 0 -108 -4 -108 -10z"/>
<path d="M3860 880 c0 -5 13 -10 28 -10 60 0 62 -9 62 -307 0 -249 -1 -271
-18 -286 -10 -10 -31 -17 -45 -17 -15 0 -27 -5 -27 -11 0 -8 56 -10 193 -7
170 4 199 7 251 27 112 44 176 139 184 273 11 176 -79 301 -242 335 -74 15
-386 18 -386 3z m378 -47 c66 -49 98 -165 89 -319 -10 -168 -66 -247 -172
-242 -43 3 -50 6 -56 28 -4 14 -7 146 -8 294 l-1 268 60 -4 c39 -3 70 -11 88
-25z"/>
<path d="M5420 880 c0 -5 7 -10 15 -10 31 0 35 -39 35 -305 0 -266 -4 -305
-35 -305 -8 0 -15 -4 -15 -10 0 -6 43 -10 110 -10 67 0 110 4 110 10 0 6 -7
10 -15 10 -26 0 -35 46 -35 184 0 132 0 132 28 159 37 36 79 36 92 1 11 -27
14 -275 4 -311 -3 -12 -15 -25 -25 -28 -47 -15 -11 -25 91 -25 67 0 110 4 110
10 0 6 -6 10 -14 10 -27 0 -31 23 -36 192 l-5 168 -33 32 c-43 44 -100 46
-158 6 -22 -16 -43 -28 -47 -28 -4 0 -7 59 -7 130 l0 130 -85 0 c-50 0 -85 -4
-85 -10z"/>
<path d="M2 770 c0 -19 2 -27 5 -17 2 9 2 25 0 35 -3 9 -5 1 -5 -18z"/>
<path d="M2700 674 c-19 -8 -45 -25 -57 -36 l-23 -21 0 31 0 32 -90 0 c-91 0
-109 -7 -67 -25 22 -10 22 -13 22 -195 0 -182 0 -185 -22 -195 -44 -19 -22
-25 87 -25 61 0 110 3 110 8 0 4 -9 13 -20 20 -19 11 -20 23 -20 161 0 143 1
149 25 175 29 31 70 34 85 7 5 -11 10 -86 10 -170 0 -138 -2 -153 -20 -171
-11 -11 -20 -22 -20 -25 0 -3 47 -5 105 -5 97 0 132 10 86 25 -27 8 -31 32
-31 193 0 163 -9 194 -65 218 -42 17 -51 17 -95 -2z"/>
<path d="M3555 681 c-114 -30 -167 -115 -102 -164 26 -20 30 -20 55 -6 32 17
42 68 18 89 -34 28 -6 60 53 60 46 0 61 -23 61 -90 l0 -59 -80 -42 c-89 -46
-136 -88 -145 -130 -13 -60 44 -117 104 -104 16 3 50 19 75 35 l46 30 12 -24
c23 -51 99 -55 150 -9 25 22 23 31 -6 26 l-24 -5 -3 154 c-4 165 -11 189 -63
223 -28 19 -109 27 -151 16z m85 -281 c0 -77 -1 -80 -25 -86 -65 -16 -101 26
-71 84 15 29 72 82 89 82 4 0 7 -36 7 -80z"/>
<path d="M4705 675 c-85 -23 -142 -107 -100 -149 25 -25 54 -29 80 -12 29 19
32 47 8 88 -17 28 -17 30 1 44 28 20 80 18 99 -4 12 -13 17 -37 17 -75 l0 -56
-62 -31 c-99 -50 -126 -69 -147 -104 -30 -47 -27 -82 9 -118 27 -26 35 -29 67
-23 37 7 69 22 110 51 20 14 22 14 35 -12 18 -38 63 -51 110 -31 42 18 73 59
37 50 -12 -4 -25 0 -30 8 -5 8 -9 80 -9 161 0 143 -1 147 -26 177 -41 49 -107
61 -199 36z m105 -274 c0 -86 -4 -91 -60 -91 -31 0 -50 23 -50 61 0 22 78 109
99 109 7 0 11 -27 11 -79z"/>
<path d="M5134 676 c-48 -21 -74 -61 -74 -114 0 -61 25 -97 109 -157 81 -58
103 -95 76 -125 -39 -43 -108 -17 -158 60 l-29 45 6 -49 c3 -27 6 -63 6 -79 0
-29 1 -30 14 -12 13 18 15 18 74 1 74 -23 119 -11 158 39 56 74 39 149 -52
217 -31 24 -73 57 -93 74 -32 29 -34 34 -23 58 9 21 19 26 45 26 42 0 81 -29
107 -81 11 -21 21 -39 23 -39 1 0 0 35 -1 77 -3 66 -6 75 -16 60 -16 -21 -35
-22 -72 -2 -35 18 -59 18 -100 1z"/>
<path d="M0 600 c0 -46 2 -81 5 -78 8 7 8 148 1 155 -3 4 -6 -31 -6 -77z"/>
<path d="M2160 671 c0 -5 11 -12 24 -15 32 -8 36 -28 36 -196 0 -168 -4 -188
-36 -196 -55 -14 -17 -24 91 -24 70 0 115 4 115 10 0 6 -7 10 -15 10 -29 0
-35 39 -35 229 l0 191 -90 0 c-49 0 -90 -4 -90 -9z"/>
<path d="M2991 613 c1 -66 1 -67 13 -34 20 55 51 73 123 69 l62 -3 -119 -200
-118 -200 185 -3 c102 -1 187 -1 188 0 1 2 5 36 8 76 l6 73 -23 -43 c-29 -57
-76 -80 -150 -76 l-56 3 115 194 c63 106 115 197 115 202 0 5 -79 9 -175 9
l-175 0 1 -67z"/>
</g>
</svg>
