<svg xmlns="http://www.w3.org/2000/svg" width="154.882" height="36" viewBox="0 0 154.882 36">
  <g id="Logo_Dark" data-name="Logo Dark" transform="translate(346.5 -89)">
    <path id="Subtraction_1" data-name="Subtraction 1" d="M30.875,56H10.625A5.631,5.631,0,0,1,5,50.375V31.25h6.75V29a9,9,0,1,1,18,0v2.25H36.5V50.375A5.631,5.631,0,0,1,30.875,56ZM20.592,38.891a6.2,6.2,0,0,0-4.34,1.652,5.21,5.21,0,0,0-1.792,3.948v2.38a5.181,5.181,0,0,0,1.89,4.159,7.392,7.392,0,0,0,4.886,1.581,7.317,7.317,0,0,0,3.514-.77c.938-.512,1.414-1.035,1.414-1.554a1.823,1.823,0,0,0-.392-1.05,1.174,1.174,0,0,0-.98-.545,4.24,4.24,0,0,0-1.344.532,4.579,4.579,0,0,1-2.1.532,3.627,3.627,0,0,1-2.38-.742,2.412,2.412,0,0,1-.9-1.946v-.42h5.684a6.542,6.542,0,0,0,.952-.055,2.666,2.666,0,0,0,.8-.278,1.367,1.367,0,0,0,.643-.762,3.835,3.835,0,0,0,.211-1.372A4.868,4.868,0,0,0,24.666,40.4,5.953,5.953,0,0,0,20.592,38.891ZM27.5,34.062a1.688,1.688,0,1,0,1.688,1.688A1.689,1.689,0,0,0,27.5,34.062Zm-13.5,0a1.688,1.688,0,1,0,1.688,1.688A1.689,1.689,0,0,0,14,34.062ZM20.75,24.5a4.505,4.505,0,0,0-4.5,4.5v2.25h9V29A4.505,4.505,0,0,0,20.75,24.5Zm1.41,20.02H18.072v-.733a1.787,1.787,0,0,1,.728-1.478,2.915,2.915,0,0,1,3.459.014,1.835,1.835,0,0,1,.714,1.49.7.7,0,0,1-.182.563A1.044,1.044,0,0,1,22.161,44.519Z" transform="translate(-351.5 69)" fill="#5840ff"/>
    <path id="Path_13125" data-name="Path 13125" d="M7.128.22A6.917,6.917,0,0,1,3.762-.561,5.66,5.66,0,0,1,1.54-2.7,6,6,0,0,1,.748-5.786a6.693,6.693,0,0,1,.44-2.464A5.873,5.873,0,0,1,2.42-10.2,5.483,5.483,0,0,1,4.3-11.473a6.179,6.179,0,0,1,2.387-.451,5.648,5.648,0,0,1,2.255.44,5.273,5.273,0,0,1,1.771,1.232,5.4,5.4,0,0,1,1.144,1.87,6.152,6.152,0,0,1,.352,2.354l-.022.946H2.882l-.506-1.98H9.328l-.374.418v-.44a1.962,1.962,0,0,0-.341-.979,2.043,2.043,0,0,0-.781-.671,2.427,2.427,0,0,0-1.1-.242,2.936,2.936,0,0,0-1.463.341,2.176,2.176,0,0,0-.913.99,3.7,3.7,0,0,0-.308,1.6,3.345,3.345,0,0,0,.407,1.683A2.769,2.769,0,0,0,5.643-3.256a4.066,4.066,0,0,0,1.859.4,3.752,3.752,0,0,0,1.331-.22A5.022,5.022,0,0,0,10.1-3.828L11.748-1.5A6.6,6.6,0,0,1,10.3-.528,7.471,7.471,0,0,1,8.723.033,7.013,7.013,0,0,1,7.128.22Zm14.7,0a8.571,8.571,0,0,1-3.2-.583,7.532,7.532,0,0,1-2.541-1.65,7.335,7.335,0,0,1-1.661-2.53,8.632,8.632,0,0,1-.583-3.223,8.028,8.028,0,0,1,.616-3.168,7.69,7.69,0,0,1,1.7-2.519,7.74,7.74,0,0,1,2.574-1.661,8.659,8.659,0,0,1,3.245-.594,8.211,8.211,0,0,1,2.156.286,7.47,7.47,0,0,1,1.969.847,6.612,6.612,0,0,1,1.573,1.331l-2.288,2.618a6.587,6.587,0,0,0-.979-.847,4.191,4.191,0,0,0-1.133-.561,4.289,4.289,0,0,0-1.32-.2,4.35,4.35,0,0,0-1.661.319,4.1,4.1,0,0,0-1.364.9,4.113,4.113,0,0,0-.913,1.419,5.055,5.055,0,0,0-.33,1.87,4.906,4.906,0,0,0,.33,1.837,4.171,4.171,0,0,0,.924,1.419,3.882,3.882,0,0,0,1.441.9,5.471,5.471,0,0,0,1.881.308,4.5,4.5,0,0,0,1.342-.2,4.914,4.914,0,0,0,1.177-.539,5,5,0,0,0,.957-.781l1.8,2.86a5.2,5.2,0,0,1-1.463,1.1,8.836,8.836,0,0,1-2.024.759A9.262,9.262,0,0,1,21.824.22Zm13.4,0a6.545,6.545,0,0,1-3.245-.792,5.979,5.979,0,0,1-2.244-2.156,5.916,5.916,0,0,1-.825-3.124,5.916,5.916,0,0,1,.825-3.124,5.979,5.979,0,0,1,2.244-2.156,6.545,6.545,0,0,1,3.245-.792,6.545,6.545,0,0,1,3.245.792A5.9,5.9,0,0,1,40.7-8.976a5.978,5.978,0,0,1,.814,3.124A5.978,5.978,0,0,1,40.7-2.728,5.9,5.9,0,0,1,38.467-.572,6.545,6.545,0,0,1,35.222.22Zm0-3.036a2.547,2.547,0,0,0,1.408-.4A2.756,2.756,0,0,0,37.6-4.29a3.179,3.179,0,0,0,.33-1.562,3.241,3.241,0,0,0-.33-1.573,2.738,2.738,0,0,0-.968-1.089,2.547,2.547,0,0,0-1.408-.4,2.6,2.6,0,0,0-1.419.4,2.71,2.71,0,0,0-.979,1.089,3.241,3.241,0,0,0-.33,1.573,3.179,3.179,0,0,0,.33,1.562A2.728,2.728,0,0,0,33.8-3.212,2.6,2.6,0,0,0,35.222-2.816ZM43.8,0V-11.682h3.344l.11,2.112-.462.022a3.86,3.86,0,0,1,.671-1.012,3.9,3.9,0,0,1,.924-.737,4.6,4.6,0,0,1,1.078-.451A4.262,4.262,0,0,1,50.6-11.9a4.418,4.418,0,0,1,1.562.264,3.127,3.127,0,0,1,1.232.847,4.145,4.145,0,0,1,.836,1.573l-.55-.044.176-.352a3.84,3.84,0,0,1,.737-.957,4.655,4.655,0,0,1,1-.726,5.087,5.087,0,0,1,1.144-.451,4.555,4.555,0,0,1,1.144-.154,4.525,4.525,0,0,1,2.31.539,3.376,3.376,0,0,1,1.4,1.617,6.5,6.5,0,0,1,.473,2.618V0H58.52V-6.842a2.975,2.975,0,0,0-.2-1.166,1.44,1.44,0,0,0-.583-.693,1.832,1.832,0,0,0-.957-.231,2.261,2.261,0,0,0-.847.154,2.029,2.029,0,0,0-.66.418,1.9,1.9,0,0,0-.429.616,1.956,1.956,0,0,0-.154.792V0H51.15V-6.864a2.844,2.844,0,0,0-.2-1.122,1.483,1.483,0,0,0-.594-.7,1.736,1.736,0,0,0-.924-.242,2.261,2.261,0,0,0-.847.154,2.028,2.028,0,0,0-.66.418,1.9,1.9,0,0,0-.429.616,1.9,1.9,0,0,0-.154.77V0Zm21.56,0V-15.4h6.446a8.309,8.309,0,0,1,3.1.561,7.042,7.042,0,0,1,2.431,1.595A7.1,7.1,0,0,1,78.914-10.8a8.457,8.457,0,0,1,.55,3.1,8.544,8.544,0,0,1-.55,3.113,6.968,6.968,0,0,1-1.573,2.442A7.121,7.121,0,0,1,74.91-.561a8.309,8.309,0,0,1-3.1.561ZM69.1-2.552,68.6-3.3h3.1a4.063,4.063,0,0,0,1.65-.319,3.613,3.613,0,0,0,1.243-.891,4.031,4.031,0,0,0,.8-1.386,5.413,5.413,0,0,0,.286-1.8,5.413,5.413,0,0,0-.286-1.8,4.031,4.031,0,0,0-.8-1.386,3.613,3.613,0,0,0-1.243-.891A4.063,4.063,0,0,0,71.7-12.1H68.53l.572-.7ZM86.284.2a4.584,4.584,0,0,1-2.629-.781,5.472,5.472,0,0,1-1.837-2.156,6.912,6.912,0,0,1-.682-3.113A6.945,6.945,0,0,1,81.818-9a5.39,5.39,0,0,1,1.87-2.145,4.815,4.815,0,0,1,2.706-.781,4.612,4.612,0,0,1,1.529.242,4.017,4.017,0,0,1,1.221.671,4.449,4.449,0,0,1,.9.99,4.129,4.129,0,0,1,.55,1.2L89.87-8.91v-2.772h3.5V0H89.8V-2.816l.792-.022a3.75,3.75,0,0,1-.572,1.166,4.329,4.329,0,0,1-.968.968,4.782,4.782,0,0,1-1.276.66A4.57,4.57,0,0,1,86.284.2Zm.968-2.97a2.587,2.587,0,0,0,1.408-.374,2.489,2.489,0,0,0,.924-1.067,3.778,3.778,0,0,0,.33-1.639,3.778,3.778,0,0,0-.33-1.639,2.563,2.563,0,0,0-.924-1.078,2.531,2.531,0,0,0-1.408-.385,2.438,2.438,0,0,0-1.375.385,2.592,2.592,0,0,0-.913,1.078,3.778,3.778,0,0,0-.33,1.639,3.778,3.778,0,0,0,.33,1.639,2.516,2.516,0,0,0,.913,1.067A2.491,2.491,0,0,0,87.252-2.772ZM100.408.22a7.757,7.757,0,0,1-3.025-.55A5.332,5.332,0,0,1,95.3-1.8l2.134-1.848a4.263,4.263,0,0,0,1.54,1,4.675,4.675,0,0,0,1.628.319,2.094,2.094,0,0,0,.55-.066,1.228,1.228,0,0,0,.407-.187.85.85,0,0,0,.253-.286.806.806,0,0,0,.088-.385.759.759,0,0,0-.4-.682,4.275,4.275,0,0,0-.66-.264q-.462-.154-1.188-.352a9.781,9.781,0,0,1-1.793-.627,4.458,4.458,0,0,1-1.243-.847,3.468,3.468,0,0,1-.682-1.023A3.164,3.164,0,0,1,95.7-8.316a2.871,2.871,0,0,1,.385-1.474,3.826,3.826,0,0,1,1.034-1.144,4.753,4.753,0,0,1,1.5-.737,6.078,6.078,0,0,1,1.749-.253,7.593,7.593,0,0,1,1.848.22,7.418,7.418,0,0,1,1.639.616,6.2,6.2,0,0,1,1.353.946l-1.848,2.068a5.152,5.152,0,0,0-.891-.671,5.151,5.151,0,0,0-1.023-.473,3.083,3.083,0,0,0-.968-.176,2.763,2.763,0,0,0-.583.055,1.2,1.2,0,0,0-.429.176.812.812,0,0,0-.264.286.806.806,0,0,0-.088.385.789.789,0,0,0,.121.418.982.982,0,0,0,.341.33,3.938,3.938,0,0,0,.7.3q.484.165,1.32.407a11.271,11.271,0,0,1,1.782.638,3.722,3.722,0,0,1,1.188.836,2.451,2.451,0,0,1,.528.869,3.162,3.162,0,0,1,.176,1.067,3.316,3.316,0,0,1-.627,1.991,4.2,4.2,0,0,1-1.727,1.364A6.051,6.051,0,0,1,100.408.22ZM107.36,0V-16.28h3.454v6.974l-.7.264a3.557,3.557,0,0,1,.869-1.441,4.819,4.819,0,0,1,1.507-1.045,4.453,4.453,0,0,1,1.848-.4,4.263,4.263,0,0,1,2.222.539,3.36,3.36,0,0,1,1.364,1.606,6.555,6.555,0,0,1,.462,2.607V0H114.84V-6.886a2.975,2.975,0,0,0-.2-1.166,1.406,1.406,0,0,0-.605-.693,1.857,1.857,0,0,0-1-.209,2.508,2.508,0,0,0-.858.143,1.9,1.9,0,0,0-.682.418,2.1,2.1,0,0,0-.451.627,1.791,1.791,0,0,0-.165.77V0h-3.52Z" transform="translate(-310 120)" fill="#090e30"/>
  </g>
</svg>
